Coordinates
version=1
nRows=6
nColumns=44
inDegrees=yes

Units are S.I. units (second, meters, Newtons, ...)
Angles are in degrees.

endheader
time	pelvis_tilt	pelvis_list	pelvis_rotation	pelvis_tx	pelvis_ty	pelvis_tz	hip_flexion_r	hip_adduction_r	hip_rotation_r	knee_angle_r	knee_adduction_r	knee_rotation_r	knee_angle_r_beta	ankle_angle_r	ankle_adduction_r	ankle_rotation_r	hip_flexion_l	hip_adduction_l	hip_rotation_l	knee_angle_l	knee_adduction_l	knee_rotation_l	knee_angle_l_beta	ankle_angle_l	ankle_adduction_l	ankle_rotation_l	lumbar_extension	lumbar_bending	lumbar_rotation	arm_flex_r	arm_add_r	arm_rot_r	elbow_flex_r	pro_sup_r	wrist_flex_r	wrist_dev_r	arm_flex_l	arm_add_l	arm_rot_l	elbow_flex_l	pro_sup_l	wrist_flex_l	wrist_dev_l
      0.96000004	    -13.62858289	      6.01404851	      0.46298203	      3.46694298	      0.88360843	      0.03049252	     27.85653651	    -10.51152305	     -0.52661242	    101.70297719	     -4.39729412	      4.34025396	      1.77505181	    -20.55938972	      4.67451427	     -6.79445684	     34.65990061	      9.84048183	     -7.73602407	     49.82083184	      1.60416952	     10.65890579	      0.86953755	     15.30983391	     -9.25508496	     -4.04497240	     -0.13420858	     -9.67840296	      5.04020224	    -14.95146253	    -20.61940202	      7.14801881	     95.31258012	     34.49540024	      0.00000000	      0.00000000	     -8.08988507	    -19.23675507	      1.76516709	    111.27176839	     34.53558621	      0.00000000	      0.00000000
      0.96500003	    -13.39262216	      5.71231205	      0.22876357	      3.48346959	      0.88424480	      0.03097261	     29.40898798	     -9.75483390	      0.04813925	    102.16074746	     -4.34097536	      4.72616459	      1.78304141	    -19.88176271	      4.56320137	     -7.28304990	     32.92289811	      9.40077575	     -8.38441846	     49.42585174	      1.27667217	     11.54458179	      0.86264385	     16.02312783	     -9.38819595	     -4.09114436	     -0.44212472	     -9.30322748	      4.57671389	    -15.61254647	    -20.95366330	      6.81269747	     95.39527802	     34.51470979	      0.00000000	      0.00000000	     -7.13059121	    -18.92842026	      1.86368308	    111.88076354	     34.65753353	      0.00000000	      0.00000000
      0.97000003	    -13.23792318	      5.41998994	     -0.05558703	      3.50018748	      0.88505412	      0.03147203	     31.05532071	     -8.99723599	      0.47988854	    102.50198888	     -4.51696122	      4.61701939	      1.78899720	    -19.39516281	      4.52171531	     -7.35049952	     31.19659066	      8.96885612	     -8.60408562	     48.88923983	      1.21151813	     11.79234750	      0.85327820	     16.45668838	     -9.39460900	     -3.94622097	     -0.61251959	     -8.91343410	      4.16574132	    -16.33551336	    -21.31336604	      6.64651839	     95.43131789	     34.52238275	      0.00000000	      0.00000000	     -6.39403641	    -18.58748075	      1.86418451	    112.65453925	     34.76796348	      0.00000000	      0.00000000
      0.97500002	    -13.01067564	      5.05814268	     -0.30568301	      3.51691262	      0.88624836	      0.03193799	     32.53702450	     -8.19008943	      0.92576847	    102.63354273	     -4.50063375	      4.48882697	      1.79129324	    -18.76426918	      4.46821527	     -7.39912158	     29.38070101	      8.50638397	     -8.90042783	     48.33006706	      1.01936810	     12.13013349	      0.84351880	     17.06781583	     -9.31392642	     -3.70811673	     -0.88182178	     -8.42095935	      3.70613500	    -17.08261315	    -21.68646526	      6.28736016	     95.87343192	     34.57432838	      0.00000000	      0.00000000	     -5.71590552	    -18.33320507	      2.08539059	    113.59141712	     34.88264050	      0.00000000	      0.00000000
      0.98000002	    -12.82960326	      4.70262547	     -0.47922216	      3.53376572	      0.88777187	      0.03227018	     33.97193648	     -7.42704510	      1.22675815	    102.55037128	     -4.53345503	      4.32135370	      1.78984163	    -18.19425391	      4.41708736	     -7.42795232	     27.55994712	      8.13339503	     -9.07970686	     47.61841534	      0.79984502	     12.38020276	      0.83109813	     17.46321886	     -9.09153081	     -3.46989318	     -1.06868488	     -7.92168969	      3.19570004	    -17.86705851	    -22.00181435	      5.95720530	     96.30248111	     34.62294120	      0.00000000	      0.00000000	     -5.04215631	    -18.11441485	      2.24904027	    114.50355065	     34.99719027	      0.00000000	      0.00000000
      0.98500001	    -12.80267960	      4.38622742	     -0.62598827	      3.55062614	      0.88938780	      0.03241662	     35.54388633	     -6.73976619	      1.48812034	    102.29296488	     -4.57719051	      4.14661157	      1.78534904	    -17.80419966	      4.37716457	     -7.42085289	     25.87418418	      7.88117780	     -9.13174721	     46.75028594	      0.56432658	     12.52819934	      0.81594642	     17.58434523	     -8.95414922	     -3.27578910	     -1.05681394	     -7.46687995	      2.65695546	    -18.60596079	    -22.37865582	      5.70890279	     96.55321495	     34.65341017	      0.00000000	      0.00000000	     -4.50338825	    -17.84726364	      2.39763818	    115.38983478	     35.10307576	      0.00000000	      0.00000000
